M48
;GenerationSoftware,Autodesk,EAGLE,9.6.2*%
;CreationDate,2021-10-01T21:08:48Z*%
FMAT,2
ICI,OFF
METRIC,TZ,000.000
T5C0.305
T4C0.400
T3C0.650
T2C1.016
T1C3.048
%
G90
M71
T1
X84328Y58395
X40640Y48260
X2540Y48260
X40640Y160020
X2540Y160020
X2540Y2515
X40640Y2515
X84328Y48260
X46228Y48260
X46228Y114275
X84328Y114275
X46228Y2515
X84328Y2515
X40640Y104140
X2540Y104140
X2540Y114275
X40640Y114275
X2540Y58395
X40640Y58395
X84328Y104140
X46228Y104140
X84328Y160020
X46228Y160020
X46228Y58395
T2
X44958Y148590
X85598Y133350
X85598Y130810
X85598Y128270
X85598Y125730
X85598Y123190
X77978Y161290
X75438Y161290
X72898Y161290
X29210Y49530
X70358Y161290
X67818Y161290
X65278Y161290
X41910Y36830
X41910Y34290
X41910Y31750
X41910Y29210
X41910Y26670
X41910Y24130
X41910Y21590
X41910Y19050
X41910Y16510
X41910Y13970
X41910Y11430
X44958Y128270
X44958Y130810
X44958Y133350
X44958Y135890
X34290Y49530
X31750Y49530
X44958Y138430
X26670Y49530
X24130Y49530
X21590Y49530
X1270Y16510
X1270Y19050
X1270Y21590
X1270Y24130
X1270Y26670
X1270Y29210
X1270Y31750
X1270Y34290
X1270Y36830
X85598Y36830
X85598Y34290
X85598Y31750
X85598Y29210
X85598Y26670
X85598Y24130
X85598Y21590
X85598Y19050
X85598Y16510
X85598Y13970
X85598Y11430
X44958Y140970
X44958Y143510
X44958Y146050
X85598Y72390
X77978Y49530
X75438Y49530
X72898Y49530
X70358Y49530
X67818Y49530
X65278Y49530
X44958Y16510
X44958Y19050
X44958Y21590
X44958Y24130
X44958Y26670
X44958Y29210
X44958Y31750
X44958Y34290
X44958Y36830
X41910Y92710
X41910Y90170
X41910Y87630
X41910Y85090
X41910Y82550
X41910Y80010
X41910Y77470
X41910Y74930
X41910Y72390
X41910Y69850
X41910Y67310
X85598Y146050
X34290Y105410
X31750Y105410
X29210Y105410
X26670Y105410
X24130Y105410
X21590Y105410
X1270Y72390
X1270Y74930
X1270Y77470
X1270Y80010
X1270Y82550
X1270Y85090
X1270Y87630
X1270Y90170
X1270Y92710
X85598Y92710
X85598Y90170
X85598Y87630
X85598Y85090
X85598Y82550
X85598Y80010
X85598Y77470
X85598Y74930
X85598Y69850
X85598Y67310
X77978Y105410
X75438Y105410
X72898Y105410
X70358Y105410
X67818Y105410
X65278Y105410
X44958Y72390
X44958Y74930
X44958Y77470
X44958Y80010
X44958Y82550
X44958Y85090
X44958Y87630
X44958Y90170
X44958Y92710
X41910Y148590
X41910Y146050
X41910Y143510
X41910Y140970
X41910Y138430
X41910Y135890
X41910Y133350
X41910Y130810
X41910Y128270
X41910Y125730
X41910Y123190
X34290Y161290
X31750Y161290
X29210Y161290
X26670Y161290
X24130Y161290
X21590Y161290
X1270Y128270
X1270Y130810
X1270Y133350
X1270Y135890
X1270Y138430
X1270Y140970
X1270Y143510
X1270Y146050
X1270Y148590
X85598Y148590
X85598Y143510
X85598Y140970
X85598Y138430
X85598Y135890
T3
X15590Y45920
X9810Y45920
X59278Y45920
X53498Y45920
X15590Y101800
X9810Y101800
X59278Y101800
X53498Y101800
X9810Y157680
X59278Y157680
X53498Y157680
X15590Y157680
T4
X17018Y49570
X8382Y49570
X8382Y45390
X17018Y45390
X60706Y49570
X52070Y49570
X52070Y45390
X52070Y161330
X52070Y157150
X60706Y157150
X8382Y105450
X60706Y105450
X52070Y105450
X60706Y45390
X52070Y101270
X60706Y101270
X8382Y101270
X17018Y105450
X17018Y161330
X8382Y161330
X8382Y157150
X17018Y157150
X17018Y101270
X60706Y161330
T5
X22733Y34671
X26162Y36195
X16764Y36195
X37465Y29591
X14097Y43053
X36449Y38227
X34544Y36195
X40640Y17907
X40386Y9779
X39624Y44196
X6477Y42418
X39243Y41402
X19050Y35560
X37783Y37148
X29261Y14859
X32766Y33274
X24519Y35560
X31750Y35560
X23698Y12446
X25527Y12954
X23749Y5715
X8255Y38862
X36703Y43434
X39243Y43434
X37211Y34798
X8382Y34036
X5842Y33782
X21209Y39497
X31394Y39497
X29210Y41910
X10922Y36830
X35560Y36830
X11684Y26289
X24500Y5000
X7493Y18415
X10033Y37465
X36068Y37465
X11176Y32639
X11176Y34036
X34925Y40894
X21590Y40855
X10160Y43561
X14922Y43751
X12827Y40259
X14922Y40919
X34036Y1143
X26162Y1270
X39751Y10541
X39751Y17526
X22225Y1270
X9144Y38100
X36830Y42291
X40386Y36576
X8382Y32766
X6477Y32766
X31746Y47659
X9271Y46609
X10160Y48260
X15240Y48260
X14732Y46355
X39116Y9652
X39116Y17145
X30480Y1270
X33039Y16684
X36830Y24638
X32912Y15668
X37465Y25527
X58166Y31496
X60400Y31202
X62482Y31202
X64591Y31202
X66699Y31202
X68807Y31202
X70890Y31202
X72998Y31176
X75182Y31227
X58190Y29424
X60400Y29424
X62482Y29424
X64591Y29424
X66699Y29424
X68807Y29424
X70890Y29424
X72998Y29398
X75182Y29449
X58190Y27239
X60400Y27239
X62482Y27239
X64591Y27239
X66699Y27239
X68807Y27239
X70890Y27239
X72998Y27214
X75182Y27265
X58166Y25146
X60400Y25157
X62482Y25157
X64591Y25157
X68807Y25157
X70890Y25157
X72998Y25131
X75182Y25182
X58190Y23023
X60400Y23023
X62482Y23023
X64591Y23023
X66699Y23023
X68807Y23023
X70890Y23023
X72998Y22998
X75182Y23048
X58164Y20991
X60374Y20991
X62457Y20991
X64565Y20991
X66673Y20991
X68782Y20991
X70864Y20991
X72973Y20966
X75157Y21016
X58166Y19050
X60273Y19177
X62482Y19061
X64591Y19061
X66699Y19061
X68807Y19061
X70890Y19061
X72998Y19035
X73914Y19050
X56388Y16510
X50038Y16510
X50038Y6350
X50038Y3810
X50038Y1270
X53848Y1270
X47498Y16510
X47498Y6350
X44958Y6350
X48768Y30480
X48514Y33147
X48768Y39243
X53848Y39497
X53848Y41910
X50546Y43434
X52578Y40640
X84328Y27940
X76327Y34798
X74168Y34290
X71628Y34290
X58166Y33361
X58166Y32472
X59206Y31496
X74676Y17308
X74676Y18197
X74676Y19050
X64008Y43180
X66548Y43180
X68961Y42545
X69088Y45720
X66548Y45720
X64008Y45720
X61468Y43180
X66548Y48260
X62738Y49530
X64008Y48260
X71628Y45720
X74168Y45720
X74168Y43180
X76454Y43180
X76454Y45720
X79248Y45720
X79248Y48260
X80518Y49530
X81788Y45720
X85598Y43180
X85598Y40640
X58928Y13970
X58928Y15240
X63373Y11430
X62103Y9779
X63754Y39751
X61341Y39751
X59055Y39751
X58166Y18070
X58166Y17156
X59282Y19050
X53848Y3810
X57023Y34290
X44958Y43180
X44958Y40640
X50038Y49530
X76454Y40005
X71882Y40132
X69215Y40132
X47371Y43434
X50038Y45720
X49657Y38100
X81788Y39370
X79248Y43561
X56261Y43180
X53848Y16510
X73025Y5715
X55118Y34925
X79248Y34290
X58928Y16383
X61849Y14224
X61289Y19050
X66521Y25157
X81026Y32893
X48514Y31877
X48514Y35814
X69850Y15240
X69215Y11125
X72898Y7620
X72644Y11176
X73050Y14021
X75438Y14859
X75413Y12700
X61722Y3810
X64008Y6350
X64008Y3810
X64008Y8890
X50038Y13970
X50038Y11430
X50038Y8890
X47498Y11430
X47498Y13970
X44958Y13970
X44958Y11430
X44958Y8890
X47498Y8890
X69088Y4445
X71628Y4445
X74168Y4445
X75438Y5715
X77470Y5715
X74549Y9398
X67564Y13970
X65913Y8890
X62992Y13843
X67564Y15875
X64643Y34823
X78740Y15545
X78816Y9296
X80670Y9271
X80594Y15570
X65913Y6350
X66212Y4535
X61595Y1270
X64008Y1270
X79248Y26543
X79248Y24638
X75565Y33020
X81864Y17602
X81864Y19507
X50038Y20320
X50038Y21590
X52578Y21590
X52578Y20320
X55118Y20320
X48768Y27940
X46228Y27940
X51054Y26670
X58928Y12470
X58928Y10970
X58928Y9470
X57928Y8470
X56928Y7470
X56428Y5970
X61603Y8279
X60603Y6779
X59103Y5779
X53848Y13970
X53848Y11430
X53848Y8890
X53848Y6350
X56388Y8890
X56388Y11430
X60198Y5080
X55118Y5080
X62103Y12954
X56388Y13970
X47498Y19812
X66421Y34671
X69850Y36195
X60452Y36195
X81153Y29591
X57785Y43053
X80137Y38227
X78232Y36195
X84328Y17907
X84074Y9779
X83312Y44196
X50165Y42418
X82931Y41402
X62738Y35560
X81471Y37148
X72949Y14859
X76454Y33274
X68207Y35560
X75438Y35560
X67386Y12446
X69215Y12954
X67437Y5715
X51943Y38862
X80391Y43434
X82931Y43434
X80899Y34798
X52070Y34036
X49530Y33782
X64897Y39497
X75082Y39497
X72898Y41910
X54610Y36830
X79248Y36830
X55372Y26289
X68188Y5000
X51181Y18415
X53721Y37465
X79756Y37465
X54864Y32639
X54864Y34036
X78613Y40894
X65278Y40855
X53848Y43561
X58610Y43751
X56515Y40259
X58610Y40919
X77724Y1143
X69850Y1270
X83439Y10541
X83439Y17526
X65913Y1270
X52832Y38100
X80518Y42291
X84074Y36576
X52070Y32766
X50165Y32766
X75434Y47659
X52959Y46609
X53848Y48260
X58928Y48260
X58420Y46355
X82804Y9652
X82804Y17145
X74168Y1270
X76727Y16684
X80518Y24638
X76600Y15668
X81153Y25527
X14478Y87376
X16712Y87082
X18794Y87082
X20903Y87082
X23011Y87082
X25119Y87082
X27202Y87082
X29310Y87056
X31494Y87107
X14502Y85304
X16712Y85304
X18794Y85304
X20903Y85304
X23011Y85304
X25119Y85304
X27202Y85304
X29310Y85278
X31494Y85329
X14502Y83119
X16712Y83119
X18794Y83119
X20903Y83119
X23011Y83119
X25119Y83119
X27202Y83119
X29310Y83094
X31494Y83145
X14478Y81026
X16712Y81037
X18794Y81037
X20903Y81037
X25119Y81037
X27202Y81037
X29310Y81011
X31494Y81062
X14502Y78903
X16712Y78903
X18794Y78903
X20903Y78903
X23011Y78903
X25119Y78903
X27202Y78903
X29310Y78878
X31494Y78928
X14476Y76871
X16686Y76871
X18769Y76871
X20877Y76871
X22985Y76871
X25094Y76871
X27176Y76871
X29285Y76846
X31469Y76896
X14478Y74930
X16585Y75057
X18794Y74941
X20903Y74941
X23011Y74941
X25119Y74941
X27202Y74941
X29310Y74915
X30226Y74930
X12700Y72390
X6350Y72390
X6350Y62230
X6350Y59690
X6350Y57150
X10160Y57150
X3810Y72390
X3810Y62230
X1270Y62230
X5080Y86360
X4826Y89027
X5080Y95123
X10160Y95377
X10160Y97790
X6858Y99314
X8890Y96520
X40640Y83820
X32639Y90678
X30480Y90170
X27940Y90170
X14478Y89241
X14478Y88352
X15518Y87376
X30988Y73188
X30988Y74077
X30988Y74930
X20320Y99060
X22860Y99060
X25273Y98425
X25400Y101600
X22860Y101600
X20320Y101600
X17780Y99060
X22860Y104140
X19050Y105410
X20320Y104140
X27940Y101600
X30480Y101600
X30480Y99060
X32766Y99060
X32766Y101600
X35560Y101600
X35560Y104140
X36830Y105410
X38100Y101600
X41910Y99060
X41910Y96520
X15240Y69850
X15240Y71120
X19685Y67310
X18415Y65659
X20066Y95631
X17653Y95631
X15367Y95631
X14478Y73950
X14478Y73036
X15594Y74930
X10160Y59690
X13335Y90170
X1270Y99060
X1270Y96520
X6350Y105410
X32766Y95885
X28194Y96012
X25527Y96012
X3683Y99314
X6350Y101600
X5969Y93980
X38100Y95250
X35560Y99441
X12573Y99060
X10160Y72390
X29337Y61595
X11430Y90805
X35560Y90170
X15240Y72263
X18161Y70104
X17601Y74930
X22833Y81037
X37338Y88773
X4826Y87757
X4826Y91694
X26162Y71120
X25527Y67005
X29210Y63500
X28956Y67056
X29362Y69901
X31750Y70739
X31725Y68580
X18034Y59690
X20320Y62230
X20320Y59690
X20320Y64770
X6350Y69850
X6350Y67310
X6350Y64770
X3810Y67310
X3810Y69850
X1270Y69850
X1270Y67310
X1270Y64770
X3810Y64770
X25400Y60325
X27940Y60325
X30480Y60325
X31750Y61595
X33782Y61595
X30861Y65278
X23876Y69850
X22225Y64770
X19304Y69723
X23876Y71755
X20955Y90703
X35052Y71425
X35128Y65176
X36982Y65151
X36906Y71450
X22225Y62230
X22524Y60415
X17907Y57150
X20320Y57150
X35560Y82423
X35560Y80518
X31877Y88900
X38176Y73482
X38176Y75387
X6350Y76200
X6350Y77470
X8890Y77470
X8890Y76200
X11430Y76200
X5080Y83820
X2540Y83820
X7366Y82550
X15240Y68350
X15240Y66850
X15240Y65350
X14240Y64350
X13240Y63350
X12740Y61850
X17915Y64159
X16915Y62659
X15415Y61659
X10160Y69850
X10160Y67310
X10160Y64770
X10160Y62230
X12700Y64770
X12700Y67310
X16510Y60960
X11430Y60960
X18415Y68834
X12700Y69850
X3810Y75692
X22733Y90551
X26162Y92075
X16764Y92075
X37465Y85471
X14097Y98933
X36449Y94107
X34544Y92075
X40640Y73787
X40386Y65659
X39624Y100076
X6477Y98298
X39243Y97282
X19050Y91440
X37783Y93027
X29261Y70739
X32766Y89154
X24519Y91440
X31750Y91440
X23698Y68326
X25527Y68834
X23749Y61595
X8255Y94742
X36703Y99314
X39243Y99314
X37211Y90678
X8382Y89916
X5842Y89662
X21209Y95377
X31394Y95377
X29210Y97790
X10922Y92710
X35560Y92710
X11684Y82169
X24500Y60880
X7493Y74295
X10033Y93345
X36068Y93345
X11176Y88519
X11176Y89916
X34925Y96774
X21590Y96735
X10160Y99441
X14922Y99631
X12827Y96139
X14922Y96798
X34036Y57023
X26162Y57150
X39751Y66421
X39751Y73406
X22225Y57150
X9144Y93980
X36830Y98171
X40386Y92456
X8382Y88646
X6477Y88646
X31746Y103539
X9271Y102489
X10160Y104140
X15240Y104140
X14732Y102235
X39116Y65532
X39116Y73025
X30480Y57150
X33039Y72564
X36830Y80518
X32912Y71548
X37465Y81407
X58166Y87376
X60400Y87082
X62482Y87082
X64591Y87082
X66699Y87082
X68807Y87082
X70890Y87082
X72998Y87056
X75182Y87107
X58190Y85304
X60400Y85304
X62482Y85304
X64591Y85304
X66699Y85304
X68807Y85304
X70890Y85304
X72998Y85278
X75182Y85329
X58190Y83119
X60400Y83119
X62482Y83119
X64591Y83119
X66699Y83119
X68807Y83119
X70890Y83119
X72998Y83094
X75182Y83145
X58166Y81026
X60400Y81037
X62482Y81037
X64591Y81037
X68807Y81037
X70890Y81037
X72998Y81011
X75182Y81062
X58190Y78903
X60400Y78903
X62482Y78903
X64591Y78903
X66699Y78903
X68807Y78903
X70890Y78903
X72998Y78878
X75182Y78928
X58164Y76871
X60374Y76871
X62457Y76871
X64565Y76871
X66673Y76871
X68782Y76871
X70864Y76871
X72973Y76846
X75157Y76896
X58166Y74930
X60273Y75057
X62482Y74941
X64591Y74941
X66699Y74941
X68807Y74941
X70890Y74941
X72998Y74915
X73914Y74930
X56388Y72390
X50038Y72390
X50038Y62230
X50038Y59690
X50038Y57150
X53848Y57150
X47498Y72390
X47498Y62230
X44958Y62230
X48768Y86360
X48514Y89027
X48768Y95123
X53848Y95377
X53848Y97790
X50546Y99314
X52578Y96520
X84328Y83820
X76327Y90678
X74168Y90170
X71628Y90170
X58166Y89241
X58166Y88352
X59206Y87376
X74676Y73188
X74676Y74077
X74676Y74930
X64008Y99060
X66548Y99060
X68961Y98425
X69088Y101600
X66548Y101600
X64008Y101600
X61468Y99060
X66548Y104140
X62738Y105410
X64008Y104140
X71628Y101600
X74168Y101600
X74168Y99060
X76454Y99060
X76454Y101600
X79248Y101600
X79248Y104140
X80518Y105410
X81788Y101600
X85598Y99060
X85598Y96520
X58928Y69850
X58928Y71120
X63373Y67310
X62103Y65659
X63754Y95631
X61341Y95631
X59055Y95631
X58166Y73950
X58166Y73036
X59282Y74930
X53848Y59690
X57023Y90170
X44958Y99060
X44958Y96520
X50038Y105410
X76454Y95885
X71882Y96012
X69215Y96012
X47371Y99314
X50038Y101600
X49657Y93980
X81788Y95250
X79248Y99441
X56261Y99060
X53848Y72390
X73025Y61595
X55118Y90805
X79248Y90170
X58928Y72263
X61849Y70104
X61289Y74930
X66521Y81037
X81026Y88773
X48514Y87757
X48514Y91694
X69850Y71120
X69215Y67005
X72898Y63500
X72644Y67056
X73050Y69901
X75438Y70739
X75413Y68580
X61722Y59690
X64008Y62230
X64008Y59690
X64008Y64770
X50038Y69850
X50038Y67310
X50038Y64770
X47498Y67310
X47498Y69850
X44958Y69850
X44958Y67310
X44958Y64770
X47498Y64770
X69088Y60325
X71628Y60325
X74168Y60325
X75438Y61595
X77470Y61595
X74549Y65278
X67564Y69850
X65913Y64770
X62992Y69723
X67564Y71755
X64643Y90703
X78740Y71425
X78816Y65176
X80670Y65151
X80594Y71450
X65913Y62230
X66212Y60415
X61595Y57150
X64008Y57150
X79248Y82423
X79248Y80518
X75565Y88900
X81864Y73482
X81864Y75387
X50038Y76200
X50038Y77470
X52578Y77470
X52578Y76200
X55118Y76200
X48768Y83820
X46228Y83820
X51054Y82550
X58928Y68350
X58928Y66850
X58928Y65350
X57928Y64350
X56928Y63350
X56428Y61850
X61603Y64159
X60603Y62659
X59103Y61659
X53848Y69850
X53848Y67310
X53848Y64770
X53848Y62230
X56388Y64770
X56388Y67310
X60198Y60960
X55118Y60960
X62103Y68834
X56388Y69850
X47498Y75692
X66421Y90551
X69850Y92075
X60452Y92075
X81153Y85471
X57785Y98933
X80137Y94107
X78232Y92075
X84328Y73787
X84074Y65659
X83312Y100076
X50165Y98298
X82931Y97282
X62738Y91440
X81471Y93027
X72949Y70739
X76454Y89154
X68207Y91440
X75438Y91440
X67386Y68326
X69215Y68834
X67437Y61595
X51943Y94742
X80391Y99314
X82931Y99314
X80899Y90678
X52070Y89916
X49530Y89662
X64897Y95377
X75082Y95377
X72898Y97790
X54610Y92710
X79248Y92710
X55372Y82169
X68188Y60880
X51181Y74295
X53721Y93345
X79756Y93345
X54864Y88519
X54864Y89916
X78613Y96774
X65278Y96735
X53848Y99441
X58610Y99631
X56515Y96139
X58610Y96798
X77724Y57023
X69850Y57150
X83439Y66421
X83439Y73406
X65913Y57150
X52832Y93980
X80518Y98171
X84074Y92456
X52070Y88646
X50165Y88646
X75434Y103539
X52959Y102489
X53848Y104140
X58928Y104140
X58420Y102235
X82804Y65532
X82804Y73025
X74168Y57150
X76727Y72564
X80518Y80518
X76600Y71548
X81153Y81407
X14478Y143256
X16712Y142962
X18794Y142962
X20903Y142962
X23011Y142962
X25119Y142962
X27202Y142962
X29310Y142936
X31494Y142987
X14502Y141184
X16712Y141184
X18794Y141184
X20903Y141184
X23011Y141184
X25119Y141184
X27202Y141184
X29310Y141158
X31494Y141209
X14502Y138999
X16712Y138999
X18794Y138999
X20903Y138999
X23011Y138999
X25119Y138999
X27202Y138999
X29310Y138974
X31494Y139025
X14478Y136906
X16712Y136917
X18794Y136917
X20903Y136917
X25119Y136917
X27202Y136917
X29310Y136891
X31494Y136942
X14502Y134783
X16712Y134783
X18794Y134783
X20903Y134783
X23011Y134783
X25119Y134783
X27202Y134783
X29310Y134758
X31494Y134808
X14476Y132751
X16686Y132751
X18769Y132751
X20877Y132751
X22985Y132751
X25094Y132751
X27176Y132751
X29285Y132726
X31469Y132776
X14478Y130810
X16585Y130937
X18794Y130821
X20903Y130821
X23011Y130821
X25119Y130821
X27202Y130821
X29310Y130795
X30226Y130810
X12700Y128270
X6350Y128270
X6350Y118110
X6350Y115570
X6350Y113030
X10160Y113030
X3810Y128270
X3810Y118110
X1270Y118110
X5080Y142240
X4826Y144907
X5080Y151003
X10160Y151257
X10160Y153670
X6858Y155194
X8890Y152400
X40640Y139700
X32639Y146558
X30480Y146050
X27940Y146050
X14478Y145121
X14478Y144232
X15518Y143256
X30988Y129068
X30988Y129957
X30988Y130810
X20320Y154940
X22860Y154940
X25273Y154305
X25400Y157480
X22860Y157480
X20320Y157480
X17780Y154940
X22860Y160020
X19050Y161290
X20320Y160020
X27940Y157480
X30480Y157480
X30480Y154940
X32766Y154940
X32766Y157480
X35560Y157480
X35560Y160020
X36830Y161290
X38100Y157480
X41910Y154940
X41910Y152400
X15240Y125730
X15240Y127000
X19685Y123190
X18415Y121539
X20066Y151511
X17653Y151511
X15367Y151511
X14478Y129830
X14478Y128916
X15594Y130810
X10160Y115570
X13335Y146050
X1270Y154940
X1270Y152400
X6350Y161290
X32766Y151765
X28194Y151892
X25527Y151892
X3683Y155194
X6350Y157480
X5969Y149860
X38100Y151130
X35560Y155321
X12573Y154940
X10160Y128270
X29337Y117475
X11430Y146685
X35560Y146050
X15240Y128143
X18161Y125984
X17601Y130810
X22833Y136917
X37338Y144653
X4826Y143637
X4826Y147574
X26162Y127000
X25527Y122885
X29210Y119380
X28956Y122936
X29362Y125781
X31750Y126619
X31725Y124460
X18034Y115570
X20320Y118110
X20320Y115570
X20320Y120650
X6350Y125730
X6350Y123190
X6350Y120650
X3810Y123190
X3810Y125730
X1270Y125730
X1270Y123190
X1270Y120650
X3810Y120650
X25400Y116205
X27940Y116205
X30480Y116205
X31750Y117475
X33782Y117475
X30861Y121158
X23876Y125730
X22225Y120650
X19304Y125603
X23876Y127635
X20955Y146583
X35052Y127305
X35128Y121056
X36982Y121031
X36906Y127330
X22225Y118110
X22524Y116295
X17907Y113030
X20320Y113030
X35560Y138303
X35560Y136398
X31877Y144780
X38176Y129362
X38176Y131267
X6350Y132080
X6350Y133350
X8890Y133350
X8890Y132080
X11430Y132080
X5080Y139700
X2540Y139700
X7366Y138430
X15240Y124230
X15240Y122730
X15240Y121230
X14240Y120230
X13240Y119230
X12740Y117730
X17915Y120039
X16915Y118539
X15415Y117539
X10160Y125730
X10160Y123190
X10160Y120650
X10160Y118110
X12700Y120650
X12700Y123190
X16510Y116840
X11430Y116840
X18415Y124714
X12700Y125730
X3810Y131572
X22733Y146431
X26162Y147955
X16764Y147955
X37465Y141351
X14097Y154813
X36449Y149987
X34544Y147955
X40640Y129667
X40386Y121539
X39624Y155956
X6477Y154178
X39243Y153162
X19050Y147320
X37783Y148908
X29261Y126619
X32766Y145034
X24519Y147320
X31750Y147320
X23698Y124206
X25527Y124714
X23749Y117475
X8255Y150622
X36703Y155194
X39243Y155194
X37211Y146558
X8382Y145796
X5842Y145542
X21209Y151257
X31394Y151257
X29210Y153670
X10922Y148590
X35560Y148590
X11684Y138049
X24500Y116760
X7493Y130175
X10033Y149225
X36068Y149225
X11176Y144399
X11176Y145796
X34925Y152654
X21590Y152615
X10160Y155321
X14922Y155512
X12827Y152019
X14922Y152679
X34036Y112903
X26162Y113030
X39751Y122301
X39751Y129286
X22225Y113030
X9144Y149860
X36830Y154051
X40386Y148336
X8382Y144526
X6477Y144526
X31746Y159419
X9271Y158369
X10160Y160020
X15240Y160020
X14732Y158115
X39116Y121412
X39116Y128905
X30480Y113030
X33039Y128444
X36830Y136398
X32912Y127428
X37465Y137287
X58166Y143256
X60400Y142962
X62482Y142962
X64591Y142962
X66699Y142962
X68807Y142962
X70890Y142962
X72998Y142936
X75182Y142987
X58190Y141184
X60400Y141184
X62482Y141184
X64591Y141184
X66699Y141184
X68807Y141184
X70890Y141184
X72998Y141158
X75182Y141209
X58190Y138999
X60400Y138999
X14478Y31496
X64591Y138999
X66699Y138999
X68807Y138999
X70890Y138999
X72998Y138974
X75182Y139025
X58166Y136906
X60400Y136917
X62482Y136917
X64591Y136917
X68807Y136917
X70890Y136917
X72998Y136891
X75182Y136942
X58190Y134783
X60400Y134783
X62482Y134783
X64591Y134783
X66699Y134783
X68807Y134783
X70890Y134783
X72998Y134758
X75182Y134808
X58164Y132751
X60374Y132751
X62457Y132751
X64565Y132751
X66673Y132751
X68782Y132751
X70864Y132751
X72973Y132726
X75157Y132776
X58166Y130810
X60273Y130937
X62482Y130821
X64591Y130821
X66699Y130821
X68807Y130821
X70890Y130821
X72998Y130795
X73914Y130810
X56388Y128270
X50038Y128270
X50038Y118110
X50038Y115570
X50038Y113030
X53848Y113030
X47498Y128270
X47498Y118110
X44958Y118110
X48768Y142240
X48514Y144907
X48768Y151003
X53848Y151257
X53848Y153670
X50546Y155194
X52578Y152400
X84328Y139700
X76327Y146558
X74168Y146050
X71628Y146050
X58166Y145121
X58166Y144232
X59206Y143256
X74676Y129068
X74676Y129957
X74676Y130810
X64008Y154940
X66548Y154940
X68961Y154305
X69088Y157480
X66548Y157480
X64008Y157480
X61468Y154940
X66548Y160020
X62738Y161290
X64008Y160020
X71628Y157480
X74168Y157480
X74168Y154940
X76454Y154940
X76454Y157480
X79248Y157480
X79248Y160020
X80518Y161290
X81788Y157480
X85598Y154940
X85598Y152400
X58928Y125730
X58928Y127000
X63373Y123190
X62103Y121539
X63754Y151511
X61341Y151511
X59055Y151511
X58166Y129830
X58166Y128916
X59282Y130810
X53848Y115570
X57023Y146050
X44958Y154940
X44958Y152400
X50038Y161290
X76454Y151765
X71882Y151892
X69215Y151892
X47371Y155194
X50038Y157480
X49657Y149860
X81788Y151130
X79248Y155321
X56261Y154940
X53848Y128270
X73025Y117475
X55118Y146685
X79248Y146050
X58928Y128143
X61849Y125984
X61289Y130810
X66521Y136917
X81026Y144653
X48514Y143637
X48514Y147574
X69850Y127000
X69215Y122885
X72898Y119380
X72644Y122936
X73050Y125781
X75438Y126619
X75413Y124460
X61722Y115570
X64008Y118110
X64008Y115570
X64008Y120650
X50038Y125730
X50038Y123190
X50038Y120650
X47498Y123190
X47498Y125730
X44958Y125730
X44958Y123190
X44958Y120650
X47498Y120650
X69088Y116205
X71628Y116205
X74168Y116205
X75438Y117475
X77470Y117475
X74549Y121158
X67564Y125730
X65913Y120650
X62992Y125603
X67564Y127635
X64643Y146583
X78740Y127305
X78816Y121056
X80670Y121031
X80594Y127330
X65913Y118110
X66212Y116295
X61595Y113030
X64008Y113030
X79248Y138303
X79248Y136398
X75565Y144780
X81864Y129362
X81864Y131267
X50038Y132080
X50038Y133350
X52578Y133350
X52578Y132080
X55118Y132080
X48768Y139700
X46228Y139700
X51054Y138430
X58928Y124230
X58928Y122730
X58928Y121230
X57928Y120230
X56928Y119230
X56428Y117730
X61603Y120039
X60603Y118539
X59103Y117539
X53848Y125730
X53848Y123190
X53848Y120650
X53848Y118110
X56388Y120650
X56388Y123190
X60198Y116840
X55118Y116840
X62103Y124714
X56388Y125730
X47498Y131572
X66421Y146431
X69850Y147955
X60452Y147955
X81153Y141351
X57785Y154813
X80137Y149987
X78232Y147955
X84328Y129667
X84074Y121539
X83312Y155956
X50165Y154178
X82931Y153162
X62738Y147320
X81471Y148908
X72949Y126619
X76454Y145034
X68207Y147320
X75438Y147320
X67386Y124206
X69215Y124714
X67437Y117475
X51943Y150622
X80391Y155194
X82931Y155194
X80899Y146558
X52070Y145796
X49530Y145542
X64897Y151257
X75082Y151257
X72898Y153670
X54610Y148590
X79248Y148590
X55372Y138049
X68188Y116760
X51181Y130175
X53721Y149225
X79756Y149225
X54864Y144399
X54864Y145796
X78613Y152654
X65278Y152615
X53848Y155321
X58610Y155512
X62482Y138999
X58610Y152679
X77724Y112903
X69850Y113030
X83439Y122301
X83439Y129286
X65913Y113030
X52832Y149860
X80518Y154051
X84074Y148336
X52070Y144526
X50165Y144526
X75434Y159419
X52959Y158369
X53848Y160020
X58928Y160020
X58420Y158115
X82804Y121412
X82804Y128905
X74168Y113030
X76727Y128444
X80518Y136398
X76600Y127428
X81153Y137287
X16712Y31202
X18794Y31202
X20903Y31202
X23011Y31202
X25119Y31202
X27202Y31202
X29310Y31176
X31494Y31227
X14502Y29424
X16712Y29424
X18794Y29424
X20903Y29424
X23011Y29424
X25119Y29424
X27202Y29424
X29310Y29398
X31494Y29449
X14502Y27239
X16712Y27239
X18794Y27239
X20903Y27239
X23011Y27239
X25119Y27239
X27202Y27239
X29310Y27214
X31494Y27265
X14478Y25146
X16712Y25157
X18794Y25157
X20903Y25157
X25119Y25157
X27202Y25157
X29310Y25131
X31494Y25182
X14502Y23023
X16712Y23023
X18794Y23023
X20903Y23023
X23011Y23023
X25119Y23023
X27202Y23023
X29310Y22998
X31494Y23048
X14476Y20991
X16686Y20991
X18769Y20991
X20877Y20991
X22985Y20991
X25094Y20991
X27176Y20991
X29285Y20966
X31469Y21016
X14478Y19050
X16585Y19177
X18794Y19061
X20903Y19061
X23011Y19061
X25119Y19061
X27202Y19061
X29310Y19035
X30226Y19050
X12700Y16510
X6350Y16510
X6350Y6350
X6350Y3810
X6350Y1270
X10160Y1270
X3810Y16510
X3810Y6350
X1270Y6350
X5080Y30480
X4826Y33147
X5080Y39243
X10160Y39497
X10160Y41910
X6858Y43434
X8890Y40640
X40640Y27940
X32639Y34798
X30480Y34290
X27940Y34290
X14478Y33361
X14478Y32472
X15518Y31496
X30988Y17308
X30988Y18197
X30988Y19050
X20320Y43180
X22860Y43180
X25273Y42545
X25400Y45720
X22860Y45720
X20320Y45720
X17780Y43180
X22860Y48260
X19050Y49530
X20320Y48260
X27940Y45720
X30480Y45720
X30480Y43180
X32766Y43180
X32766Y45720
X35560Y45720
X35560Y48260
X36830Y49530
X38100Y45720
X41910Y43180
X41910Y40640
X15240Y13970
X15240Y15240
X19685Y11430
X18415Y9779
X20066Y39751
X17653Y39751
X15367Y39751
X14478Y18070
X14478Y17156
X15594Y19050
X10160Y3810
X13335Y34290
X1270Y43180
X1270Y40640
X6350Y49530
X32766Y40005
X28194Y40132
X25527Y40132
X3683Y43434
X6350Y45720
X5969Y38100
X38100Y39370
X35560Y43561
X12573Y43180
X10160Y16510
X29337Y5715
X11430Y34925
X35560Y34290
X15240Y16383
X18161Y14224
X17601Y19050
X22833Y25157
X37338Y32893
X4826Y31877
X4826Y35814
X26162Y15240
X25527Y11125
X29210Y7620
X28956Y11176
X29362Y14021
X31750Y14859
X31725Y12700
X18034Y3810
X20320Y6350
X20320Y3810
X20320Y8890
X6350Y13970
X6350Y11430
X6350Y8890
X3810Y11430
X3810Y13970
X1270Y13970
X1270Y11430
X1270Y8890
X3810Y8890
X25400Y4445
X27940Y4445
X30480Y4445
X31750Y5715
X33782Y5715
X30861Y9398
X23876Y13970
X22225Y8890
X19304Y13843
X23876Y15875
X20955Y34823
X35052Y15545
X35128Y9296
X36982Y9271
X36906Y15570
X22225Y6350
X22524Y4535
X17907Y1270
X20320Y1270
X35560Y26543
X35560Y24638
X31877Y33020
X38176Y17602
X38176Y19507
X6350Y20320
X6350Y21590
X8890Y21590
X8890Y20320
X11430Y20320
X5080Y27940
X2540Y27940
X7366Y26670
X15240Y12470
X15240Y10970
X15240Y9470
X14240Y8470
X13240Y7470
X12740Y5970
X17915Y8279
X16915Y6779
X15415Y5779
X10160Y13970
X10160Y11430
X10160Y8890
X10160Y6350
X12700Y8890
X12700Y11430
X16510Y5080
X11430Y5080
X18415Y12954
X12700Y13970
X3810Y19812
X56515Y152019
M30